<svg width="157" height="157" viewBox="0 0 157 157" fill="none" xmlns="http://www.w3.org/2000/svg">
<path fill-rule="evenodd" clip-rule="evenodd" d="M78.5 147.188C96.7171 147.188 114.188 139.951 127.069 127.069C139.951 114.188 147.188 96.7171 147.188 78.5C147.188 60.2829 139.951 42.812 127.069 29.9306C114.188 17.0492 96.7171 9.8125 78.5 9.8125C60.2829 9.8125 42.812 17.0492 29.9306 29.9306C17.0492 42.812 9.8125 60.2829 9.8125 78.5C9.8125 96.7171 17.0492 114.188 29.9306 127.069C42.812 139.951 60.2829 147.188 78.5 147.188ZM78.5 157C99.3195 157 119.286 148.729 134.008 134.008C148.729 119.286 157 99.3195 157 78.5C157 57.6805 148.729 37.7137 134.008 22.9921C119.286 8.27051 99.3195 0 78.5 0C57.6805 0 37.7137 8.27051 22.9921 22.9921C8.27051 37.7137 0 57.6805 0 78.5C0 99.3195 8.27051 119.286 22.9921 134.008C37.7137 148.729 57.6805 157 78.5 157Z" fill="#9f957f"/>
<path fill-rule="evenodd" clip-rule="evenodd" d="M107.643 48.7681C109.016 47.4069 110.87 46.6407 112.804 46.6354C114.737 46.6301 116.595 47.3859 117.976 48.7396C119.357 50.0933 120.149 51.936 120.182 53.8693C120.215 55.8027 119.486 57.6713 118.152 59.0713L78.9808 108.036C78.3076 108.761 77.495 109.343 76.5918 109.747C75.6885 110.151 74.7131 110.368 73.7238 110.386C72.7345 110.405 71.7516 110.223 70.834 109.853C69.9164 109.483 69.0829 108.932 68.3833 108.232L42.4292 82.268C41.7062 81.5943 41.1262 80.7818 40.724 79.879C40.3218 78.9763 40.1055 78.0018 40.0881 77.0136C40.0706 76.0255 40.2524 75.044 40.6225 74.1276C40.9927 73.2112 41.5436 72.3788 42.2424 71.6799C42.9413 70.9811 43.7737 70.4302 44.6901 70.0601C45.6064 69.6899 46.588 69.5081 47.5761 69.5256C48.5643 69.543 49.5388 69.7593 50.4415 70.1615C51.3443 70.5638 52.1567 71.1437 52.8305 71.8668L73.3779 92.4043L107.457 48.984C107.517 48.908 107.583 48.8359 107.653 48.7681H107.643Z" fill="#9f957f"/>
</svg>
